# Blender v2.93.3 OBJ File: ''
# www.blender.org
mtllib asteroid3.mtl
o Cube.001
v -0.000000 -0.868500 -2.262807
v 2.573405 -0.868500 1.081111
v -2.573405 -0.868500 1.081111
v -0.000000 2.624839 -0.033528
vt 0.250000 0.490000
vt 0.250000 0.250000
vt 0.457846 0.130000
vt 0.750000 0.490000
vt 0.957846 0.130000
vt 0.542154 0.130000
vt 0.042154 0.130000
vn 0.7385 0.3627 -0.5684
vn 0.0000 -1.0000 0.0000
vn -0.0000 0.3040 0.9527
vn -0.7385 0.3627 -0.5684
usemtl None
s off
f 1/1/1 4/2/1 2/3/1
f 1/4/2 2/5/2 3/6/2
f 2/3/3 4/2/3 3/7/3
f 3/7/4 4/2/4 1/1/4
