# Blender v2.93.3 OBJ File: ''
# www.blender.org
mtllib asteroid2.mtl
o Cube.003
v -0.599168 1.752962 -0.402359
v -2.207039 0.299635 -0.421702
v -1.158444 -1.137278 1.635894
v 0.217909 0.519679 2.251115
v 1.666535 1.126478 -0.287953
v -0.563025 0.309778 -2.105809
v 0.523872 -1.891586 -0.717057
v 2.147968 -0.768517 -0.379345
vt 0.791667 0.583333
vt 0.541667 0.166667
vt 0.125000 0.750000
vt 0.541667 0.833333
vt 0.625000 0.583333
vt 0.375000 1.000000
vt 0.541667 0.333333
vt 0.291667 0.583333
vt 0.458333 0.583333
vt 0.375000 0.000000
vn -0.6551 0.5160 0.5519
vn 0.2332 0.9073 0.3499
vn -0.6056 -0.7050 -0.3690
vn 0.8334 0.1867 0.5201
vn 0.5793 0.1854 -0.7938
vn -0.5597 0.6264 -0.5426
vn 0.4372 -0.6754 0.5938
vn 0.2372 0.7437 -0.6250
vn 0.4080 -0.3345 -0.8495
usemtl None
s 1
f 1/1/1 2/2/1 3/3/1 4/4/1
f 1/1/2 4/4/2 5/5/2
f 3/6/3 2/2/3 6/7/3 7/8/3
f 4/4/4 8/9/4 5/5/4
f 6/7/5 5/5/5 8/9/5
f 6/7/6 2/2/6 1/1/6
f 4/4/7 3/10/7 7/8/7 8/9/7
f 6/7/8 1/1/8 5/5/8
f 6/7/9 8/9/9 7/8/9
