# Alias OBJ Model File
# Exported from SketchUp, (c) 2000-2012 Trimble Navigation Limited
# File units = millimeters

mtllib cube.mtl

g Mesh1 Model

usemtl FrontColor
v 500 0 500
vt -19.685 -19.685
vn 0 -1 -0
v -500 0 500
vt 19.685 -19.685
v -500 0 -500
vt 19.685 19.685
v 500 0 -500
vt -19.685 19.685
f 1/1/1 2/2/1 3/3/1 4/4/1 

vt -19.685 0
vn 0 0 1
vt 19.685 0
v 500 1000 500
vt 19.685 39.3701
v -500 1000 500
vt -19.685 39.3701
f 2/5/2 1/6/2 5/7/2 6/8/2 

vn 1 0 -0
v 500 1000 -500
f 1/5/3 4/6/3 7/7/3 5/8/3 

vn 0 0 -1
v -500 1000 -500
f 4/5/4 3/6/4 8/7/4 7/8/4 

vn -1 0 -0
f 3/5/5 2/6/5 6/7/5 8/8/5 

vn 0 1 -0
f 6/1/6 5/2/6 7/3/6 8/4/6 

